ffmpeg started on 2016-12-10 at 05:04:42
Report written to "Output/x264/results/ffmpeg/sintelplacebo15000k.log"
Command line:
Tools/ffmpeg/ffmpeg -benchmark -y -i Input/y4m/sintel.y4m -c:v libx264 -preset placebo -b:v 15000k -an Output/x264/encoded/sintelplacebo15000k.mkv
ffmpeg version N-82227-gdb23fde Copyright (c) 2000-2016 the FFmpeg developers
  built with gcc 5.4.0 (Ubuntu 5.4.0-6ubuntu1~16.04.2) 20160609
  configuration: --prefix=/home/jaroslav/ffmpeg_build --pkg-config-flags=--static --extra-cflags=-I/home/jaroslav/ffmpeg_build/include --extra-ldflags=-L/home/jaroslav/ffmpeg_build/lib --bindir=/home/jaroslav/bin --enable-gpl --enable-libass --enable-libfdk-aac --enable-libfreetype --enable-libmp3lame --enable-libopus --enable-libtheora --enable-libvorbis --enable-libvpx --enable-libx264 --enable-libx265 --enable-nvenc --enable-libmfx --enable-libxvid --enable-libgsm --enable-libopencore-amrnb --enable-version3 --enable-nonfree
  libavutil      55. 35.100 / 55. 35.100
  libavcodec     57. 66.101 / 57. 66.101
  libavformat    57. 57.100 / 57. 57.100
  libavdevice    57.  2.100 / 57.  2.100
  libavfilter     6. 66.100 /  6. 66.100
  libswscale      4.  3.100 /  4.  3.100
  libswresample   2.  4.100 /  2.  4.100
  libpostproc    54.  2.100 / 54.  2.100
Input #0, yuv4mpegpipe, from 'Input/y4m/sintel.y4m':
  Duration: 00:00:20.83, start: 0.000000, bitrate: 2057307 kb/s
    Stream #0:0: Video: rawvideo (I420 / 0x30323449), yuv420p(progressive), 4096x1744, SAR 1:1 DAR 256:109, 24 fps, 24 tbr, 24 tbn, 24 tbc
[libx264 @ 0x339b1c0] using SAR=1/1
[libx264 @ 0x339b1c0] DPB size (16 frames, 446464 mbs) > level limit (6 frames, 184320 mbs)
[libx264 @ 0x339b1c0] using cpu capabilities: MMX2 SSE2Fast SSSE3 SSE4.2 AVX FMA3 AVX2 LZCNT BMI2
[libx264 @ 0x339b1c0] profile High, level 5.2
[libx264 @ 0x339b1c0] 264 - core 148 - H.264/MPEG-4 AVC codec - Copyleft 2003-2016 - http://www.videolan.org/x264.html - options: cabac=1 ref=16 deblock=1:0:0 analyse=0x3:0x133 me=tesa subme=11 psy=1 psy_rd=1.00:0.00 mixed_ref=1 me_range=24 chroma_me=1 trellis=2 8x8dct=1 cqm=0 deadzone=21,11 fast_pskip=0 chroma_qp_offset=-2 threads=6 lookahead_threads=1 sliced_threads=0 nr=0 decimate=1 interlaced=0 bluray_compat=0 constrained_intra=0 bframes=16 b_pyramid=2 b_adapt=2 b_bias=0 direct=3 weightb=1 open_gop=0 weightp=2 keyint=250 keyint_min=24 scenecut=40 intra_refresh=0 rc_lookahead=60 rc=abr mbtree=1 bitrate=15000 ratetol=1.0 qcomp=0.60 qpmin=0 qpmax=69 qpstep=4 ip_ratio=1.40 aq=1:1.00
Output #0, matroska, to 'Output/x264/encoded/sintelplacebo15000k.mkv':
  Metadata:
    encoder         : Lavf57.57.100
    Stream #0:0: Video: h264 (libx264) (H264 / 0x34363248), yuv420p, 4096x1744 [SAR 1:1 DAR 256:109], q=-1--1, 15000 kb/s, 24 fps, 1k tbn, 24 tbc
    Metadata:
      encoder         : Lavc57.66.101 libx264
    Side data:
      cpb: bitrate max/min/avg: 0/0/15000000 buffer size: 0 vbv_delay: -1
Stream mapping:
  Stream #0:0 -> #0:0 (rawvideo (native) -> h264 (libx264))
Press [q] to stop, [?] for help
frame=   10 fps=0.0 q=0.0 size=       0kB time=00:00:00.00 bitrate=N/A speed=   0x    frame=   18 fps= 17 q=0.0 size=       0kB time=00:00:00.00 bitrate=N/A speed=   0x    frame=   26 fps= 17 q=0.0 size=       0kB time=00:00:00.00 bitrate=N/A speed=   0x    frame=   34 fps= 16 q=0.0 size=       0kB time=00:00:00.00 bitrate=N/A speed=   0x    frame=   42 fps= 16 q=0.0 size=       0kB time=00:00:00.00 bitrate=N/A speed=   0x    frame=   50 fps= 16 q=0.0 size=       0kB time=00:00:00.00 bitrate=N/A speed=   0x    frame=   58 fps= 16 q=0.0 size=       0kB time=00:00:00.00 bitrate=N/A speed=   0x    frame=   66 fps= 16 q=0.0 size=       0kB time=00:00:00.00 bitrate=N/A speed=   0x    frame=   74 fps= 16 q=0.0 size=       0kB time=00:00:00.00 bitrate=N/A speed=   0x    frame=   75 fps=9.4 q=0.0 size=       0kB time=00:00:00.00 bitrate=N/A speed=   0x    frame=   76 fps=6.8 q=0.0 size=       0kB time=00:00:00.00 bitrate=N/A speed=   0x    frame=   77 fps=6.2 q=0.0 size=       0kB time=00:00:00.00 bitrate=N/A speed=   0x    frame=   84 fps=1.4 q=0.0 size=       0kB time=00:00:00.00 bitrate=N/A speed=   0x    frame=   86 fps=1.5 q=0.0 size=       0kB time=00:00:00.00 bitrate=N/A speed=   0x    frame=   88 fps=1.4 q=21.0 size=       1kB time=-00:00:00.08 bitrate=N/A speed=N/A    frame=   90 fps=1.3 q=26.0 size=       1kB time=00:00:00.00 bitrate=5888.0kbits/s speed=1.46e-05x    frame=   92 fps=1.3 q=33.0 size=       1kB time=00:00:00.08 bitrate=  70.1kbits/s speed=0.00119x    frame=   93 fps=1.2 q=37.0 size=       1kB time=00:00:00.12 bitrate=  46.7kbits/s speed=0.00159x    frame=   94 fps=1.2 q=37.0 size=       1kB time=00:00:00.16 bitrate=  35.0kbits/s speed=0.00208x    frame=   96 fps=1.2 q=38.0 size=       1kB time=00:00:00.25 bitrate=  23.5kbits/s speed=0.00306x    frame=   98 fps=1.2 q=38.0 size=       1kB time=00:00:00.33 bitrate=  17.6kbits/s speed=0.00399x    frame=   99 fps=1.1 q=38.0 size=       1kB time=00:00:00.37 bitrate=  15.7kbits/s speed=0.00401x    frame=  100 fps=1.1 q=38.0 size=       1kB time=00:00:00.41 bitrate=  14.1kbits/s speed=0.0044x    frame=  101 fps=1.1 q=38.0 size=       1kB time=00:00:00.45 bitrate=  12.8kbits/s speed=0.00478x    frame=  102 fps=1.0 q=37.0 size=       1kB time=00:00:00.50 bitrate=  11.8kbits/s speed=0.00515x    frame=  103 fps=1.0 q=37.0 size=       1kB time=00:00:00.54 bitrate=  10.8kbits/s speed=0.00547x    frame=  104 fps=1.0 q=37.0 size=       1kB time=00:00:00.58 bitrate=  10.1kbits/s speed=0.00572x    frame=  105 fps=1.0 q=37.0 size=       1kB time=00:00:00.62 bitrate=   9.4kbits/s speed=0.00575x    frame=  106 fps=0.9 q=37.0 size=       1kB time=00:00:00.66 bitrate=   8.8kbits/s speed=0.00578x    frame=  107 fps=0.9 q=37.0 size=       1kB time=00:00:00.70 bitrate=   8.3kbits/s speed=0.00606x    frame=  108 fps=0.9 q=37.0 size=       1kB time=00:00:00.75 bitrate=   7.8kbits/s speed=0.00627x    frame=  109 fps=0.9 q=37.0 size=       1kB time=00:00:00.79 bitrate=   7.4kbits/s speed=0.00648x    frame=  110 fps=0.9 q=37.0 size=       1kB time=00:00:00.83 bitrate=   7.1kbits/s speed=0.00668x    frame=  111 fps=0.8 q=37.0 size=       1kB time=00:00:00.87 bitrate=   6.7kbits/s speed=0.00662x    frame=  112 fps=0.8 q=37.0 size=       1kB time=00:00:00.91 bitrate=   6.4kbits/s speed=0.00664x    frame=  113 fps=0.8 q=37.0 size=       1kB time=00:00:00.95 bitrate=   6.1kbits/s speed=0.00666x    frame=  114 fps=0.8 q=37.0 size=       1kB time=00:00:01.00 bitrate=   5.9kbits/s speed=0.00686x    frame=  115 fps=0.8 q=37.0 size=       1kB time=00:00:01.04 bitrate=   5.6kbits/s speed=0.00711x    frame=  116 fps=0.8 q=36.0 size=       1kB time=00:00:01.08 bitrate=   5.4kbits/s speed=0.00727x    frame=  117 fps=0.8 q=36.0 size=       1kB time=00:00:01.12 bitrate=   5.2kbits/s speed=0.00731x    frame=  118 fps=0.7 q=36.0 size=       1kB time=00:00:01.16 bitrate=   5.0kbits/s speed=0.00722x    frame=  119 fps=0.7 q=36.0 size=       1kB time=00:00:01.20 bitrate=   4.9kbits/s speed=0.00724x    frame=  120 fps=0.7 q=36.0 size=       1kB time=00:00:01.25 bitrate=   4.7kbits/s speed=0.00737x    frame=  121 fps=0.7 q=36.0 size=       1kB time=00:00:01.29 bitrate=   4.6kbits/s speed=0.00748x    frame=  122 fps=0.7 q=36.0 size=       1kB time=00:00:01.33 bitrate=   4.4kbits/s speed=0.0076x    frame=  123 fps=0.7 q=36.0 size=       1kB time=00:00:01.37 bitrate=   4.3kbits/s speed=0.00766x    frame=  124 fps=0.7 q=36.0 size=       1kB time=00:00:01.41 bitrate=   4.2kbits/s speed=0.0076x    frame=  125 fps=0.7 q=36.0 size=       1kB time=00:00:01.45 bitrate=   4.0kbits/s speed=0.00759x    frame=  126 fps=0.6 q=36.0 size=       1kB time=00:00:01.50 bitrate=   3.9kbits/s speed=0.0077x    frame=  127 fps=0.6 q=35.0 size=       1kB time=00:00:01.54 bitrate=   3.8kbits/s speed=0.0078x    frame=  128 fps=0.6 q=35.0 size=       1kB time=00:00:01.58 bitrate=   3.7kbits/s speed=0.00785x    frame=  129 fps=0.6 q=35.0 size=       1kB time=00:00:01.62 bitrate=   3.6kbits/s speed=0.00795x    frame=  130 fps=0.6 q=35.0 size=       1kB time=00:00:01.66 bitrate=   3.5kbits/s speed=0.00792x    frame=  131 fps=0.6 q=35.0 size=       1kB time=00:00:01.70 bitrate=   3.4kbits/s speed=0.00786x    frame=  132 fps=0.6 q=35.0 size=       1kB time=00:00:01.75 bitrate=   3.4kbits/s speed=0.00794x    frame=  133 fps=0.6 q=35.0 size=       1kB time=00:00:01.79 bitrate=   3.3kbits/s speed=0.00804x    frame=  134 fps=0.6 q=35.0 size=       1kB time=00:00:01.83 bitrate=   3.2kbits/s speed=0.00812x    frame=  135 fps=0.6 q=35.0 size=       1kB time=00:00:01.87 bitrate=   3.1kbits/s speed=0.00822x    frame=  136 fps=0.6 q=35.0 size=       1kB time=00:00:01.91 bitrate=   3.1kbits/s speed=0.00818x    frame=  137 fps=0.6 q=35.0 size=       1kB time=00:00:01.95 bitrate=   3.0kbits/s speed=0.0081x    frame=  138 fps=0.6 q=34.0 size=       1kB time=00:00:02.00 bitrate=   2.9kbits/s speed=0.00807x    frame=  139 fps=0.6 q=34.0 size=       1kB time=00:00:02.04 bitrate=   2.9kbits/s speed=0.00816x    frame=  140 fps=0.6 q=34.0 size=       1kB time=00:00:02.08 bitrate=   2.8kbits/s speed=0.00823x    frame=  141 fps=0.5 q=34.0 size=       1kB time=00:00:02.12 bitrate=   2.8kbits/s speed=0.00827x    frame=  142 fps=0.5 q=34.0 size=       1kB time=00:00:02.16 bitrate=   2.7kbits/s speed=0.00826x    frame=  143 fps=0.5 q=34.0 size=    5185kB time=00:00:02.20 bitrate=19229.8kbits/s speed=0.0082x    frame=  144 fps=0.5 q=34.0 size=    5185kB time=00:00:02.25 bitrate=18871.0kbits/s speed=0.00815x    frame=  145 fps=0.5 q=34.0 size=    5185kB time=00:00:02.29 bitrate=18525.4kbits/s speed=0.00821x    frame=  146 fps=0.5 q=34.0 size=    5185kB time=00:00:02.33 bitrate=18200.0kbits/s speed=0.00828x    frame=  147 fps=0.5 q=34.0 size=    5185kB time=00:00:02.37 bitrate=17878.2kbits/s speed=0.00831x    frame=  148 fps=0.5 q=34.0 size=    5185kB time=00:00:02.41 bitrate=17567.7kbits/s speed=0.00832x    frame=  149 fps=0.5 q=34.0 size=    5185kB time=00:00:02.45 bitrate=17274.8kbits/s speed=0.00825x    frame=  150 fps=0.5 q=34.0 size=    5185kB time=00:00:02.50 bitrate=16984.7kbits/s speed=0.00827x    frame=  151 fps=0.5 q=34.0 size=    5185kB time=00:00:02.54 bitrate=16704.2kbits/s speed=0.00828x    frame=  152 fps=0.5 q=34.0 size=    5185kB time=00:00:02.58 bitrate=16439.1kbits/s speed=0.00833x    frame=  153 fps=0.5 q=34.0 size=    5185kB time=00:00:02.62 bitrate=16176.2kbits/s speed=0.00838x    frame=  154 fps=0.5 q=34.0 size=    5185kB time=00:00:02.66 bitrate=15921.6kbits/s speed=0.00832x    frame=  155 fps=0.5 q=34.0 size=    5185kB time=00:00:02.70 bitrate=15680.6kbits/s speed=0.0084x    frame=  156 fps=0.5 q=34.0 size=    5185kB time=00:00:02.75 bitrate=15441.2kbits/s speed=0.00842x    frame=  157 fps=0.5 q=34.0 size=    5185kB time=00:00:02.79 bitrate=15209.0kbits/s speed=0.00844x    frame=  158 fps=0.5 q=34.0 size=    5185kB time=00:00:02.83 bitrate=14989.0kbits/s speed=0.0085x    frame=  159 fps=0.5 q=34.0 size=    5185kB time=00:00:02.87 bitrate=14770.1kbits/s speed=0.00854x    frame=  160 fps=0.5 q=33.0 size=    5185kB time=00:00:02.91 bitrate=14557.5kbits/s speed=0.0085x    frame=  161 fps=0.5 q=33.0 size=    5185kB time=00:00:02.95 bitrate=14355.8kbits/s speed=0.00854x    frame=  162 fps=0.5 q=33.0 size=    5185kB time=00:00:03.00 bitrate=14154.8kbits/s speed=0.00859x    frame=  163 fps=0.5 q=33.0 size=    5185kB time=00:00:03.04 bitrate=13959.5kbits/s speed=0.0086x    frame=  164 fps=0.5 q=33.0 size=    5185kB time=00:00:03.08 bitrate=13773.9kbits/s speed=0.00867x    frame=  165 fps=0.5 q=33.0 size=    5185kB time=00:00:03.12 bitrate=13588.8kbits/s speed=0.00872x    frame=  166 fps=0.5 q=33.0 size=    5185kB time=00:00:03.16 bitrate=13408.7kbits/s speed=0.00867x    frame=  167 fps=0.5 q=33.0 size=    5185kB time=00:00:03.20 bitrate=13237.4kbits/s speed=0.00868x    frame=  168 fps=0.5 q=33.0 size=    5185kB time=00:00:03.25 bitrate=13066.4kbits/s speed=0.00875x    frame=  169 fps=0.5 q=33.0 size=    5185kB time=00:00:03.29 bitrate=12899.7kbits/s speed=0.00878x    frame=  170 fps=0.4 q=33.0 size=    5185kB time=00:00:03.33 bitrate=12741.1kbits/s speed=0.00879x    frame=  171 fps=0.4 q=33.0 size=    5185kB time=00:00:03.37 bitrate=12582.6kbits/s speed=0.00883x    frame=  172 fps=0.4 q=33.0 size=    5185kB time=00:00:03.41 bitrate=12427.9kbits/s speed=0.00879x    frame=  173 fps=0.4 q=33.0 size=    5185kB time=00:00:03.45 bitrate=12280.6kbits/s speed=0.0088x    frame=  174 fps=0.4 q=33.0 size=    5185kB time=00:00:03.50 bitrate=12133.3kbits/s speed=0.00886x    frame=  175 fps=0.4 q=33.0 size=    5185kB time=00:00:03.54 bitrate=11989.5kbits/s speed=0.00886x    frame=  176 fps=0.4 q=32.0 size=    5185kB time=00:00:03.58 bitrate=11852.3kbits/s speed=0.00887x    frame=  177 fps=0.4 q=32.0 size=    5185kB time=00:00:03.62 bitrate=11715.0kbits/s speed=0.00891x    frame=  178 fps=0.4 q=32.0 size=    5185kB time=00:00:03.66 bitrate=11580.9kbits/s speed=0.00887x    frame=  179 fps=0.4 q=32.0 size=    5185kB time=00:00:03.70 bitrate=11452.9kbits/s speed=0.00886x    frame=  180 fps=0.4 q=32.0 size=    5185kB time=00:00:03.75 bitrate=11324.6kbits/s speed=0.00889x    frame=  181 fps=0.4 q=32.0 size=    5185kB time=00:00:03.79 bitrate=11199.2kbits/s speed=0.00893x    frame=  182 fps=0.4 q=32.0 size=    5185kB time=00:00:03.83 bitrate=11079.5kbits/s speed=0.00894x    frame=  183 fps=0.4 q=32.0 size=    5185kB time=00:00:03.87 bitrate=10959.4kbits/s speed=0.00898x    frame=  184 fps=0.4 q=32.0 size=    5185kB time=00:00:03.91 bitrate=10841.9kbits/s speed=0.0089x    frame=  185 fps=0.4 q=32.0 size=    5185kB time=00:00:03.95 bitrate=10729.7kbits/s speed=0.00892x    frame=  186 fps=0.4 q=32.0 size=    5185kB time=00:00:04.00 bitrate=10617.0kbits/s speed=0.00895x    frame=  187 fps=0.4 q=32.0 size=    5185kB time=00:00:04.04 bitrate=10506.7kbits/s speed=0.00898x    frame=  188 fps=0.4 q=32.0 size=    5185kB time=00:00:04.08 bitrate=10401.2kbits/s speed=0.00901x    frame=  189 fps=0.4 q=32.0 size=    5185kB time=00:00:04.12 bitrate=10295.4kbits/s speed=0.00901x    frame=  190 fps=0.4 q=32.0 size=    5185kB time=00:00:04.16 bitrate=10191.6kbits/s speed=0.00907x    frame=  191 fps=0.4 q=32.0 size=    5185kB time=00:00:04.20 bitrate=10092.4kbits/s speed=0.00899x    frame=  192 fps=0.4 q=32.0 size=    5185kB time=00:00:04.25 bitrate=9992.6kbits/s speed=0.00905x    frame=  193 fps=0.4 q=32.0 size=    5185kB time=00:00:04.29 bitrate=9894.9kbits/s speed=0.0091x    frame=  194 fps=0.4 q=32.0 size=    5185kB time=00:00:04.33 bitrate=9801.3kbits/s speed=0.00917x    frame=  195 fps=0.4 q=32.0 size=    5185kB time=00:00:04.37 bitrate=9707.2kbits/s speed=0.00913x    frame=  196 fps=0.4 q=32.0 size=    5185kB time=00:00:04.41 bitrate=9614.9kbits/s speed=0.00918x    frame=  197 fps=0.4 q=32.0 size=    5185kB time=00:00:04.45 bitrate=9526.5kbits/s speed=0.00909x    frame=  198 fps=0.4 q=32.0 size=    5185kB time=00:00:04.50 bitrate=9437.6kbits/s speed=0.00912x    frame=  199 fps=0.4 q=32.0 size=    5185kB time=00:00:04.54 bitrate=9350.4kbits/s speed=0.00915x    frame=  200 fps=0.4 q=32.0 size=    5185kB time=00:00:04.58 bitrate=9266.7kbits/s speed=0.00918x    frame=  201 fps=0.4 q=32.0 size=    5185kB time=00:00:04.62 bitrate=9182.6kbits/s speed=0.00921x    frame=  202 fps=0.4 q=31.0 size=    5185kB time=00:00:04.66 bitrate=9100.0kbits/s speed=0.00925x    frame=  203 fps=0.4 q=31.0 size=    5185kB time=00:00:04.70 bitrate=9020.7kbits/s speed=0.00922x    frame=  204 fps=0.4 q=31.0 size=    5185kB time=00:00:04.75 bitrate=8941.0kbits/s speed=0.00909x    frame=  205 fps=0.4 q=31.0 size=    5185kB time=00:00:04.79 bitrate=8862.7kbits/s speed=0.00913x    frame=  206 fps=0.4 q=31.0 size=    5185kB time=00:00:04.83 bitrate=8787.5kbits/s speed=0.00913x    frame=  207 fps=0.4 q=31.0 size=    5185kB time=00:00:04.87 bitrate=8711.8kbits/s speed=0.00918x    frame=  208 fps=0.4 q=31.0 size=    5185kB time=00:00:04.91 bitrate=8637.4kbits/s speed=0.0092x    frame=  209 fps=0.4 q=31.0 size=    5185kB time=00:00:04.95 bitrate=8566.0kbits/s speed=0.00924x    frame=  210 fps=0.4 q=31.0 size=    5185kB time=00:00:05.00 bitrate=8494.0kbits/s speed=0.00928x    frame=  211 fps=0.4 q=31.0 size=    5185kB time=00:00:05.04 bitrate=8423.3kbits/s speed=0.00918x    frame=  212 fps=0.4 q=31.0 size=    5185kB time=00:00:05.08 bitrate=8355.4kbits/s speed=0.00915x    frame=  213 fps=0.4 q=31.0 size=    5185kB time=00:00:05.12 bitrate=8286.9kbits/s speed=0.00919x    frame=  214 fps=0.4 q=31.0 size=    5185kB time=00:00:05.16 bitrate=8219.6kbits/s speed=0.00921x    frame=  215 fps=0.4 q=31.0 size=    5185kB time=00:00:05.20 bitrate=8154.9kbits/s speed=0.00924x    frame=  216 fps=0.4 q=31.0 size=    5185kB time=00:00:05.25 bitrate=8089.6kbits/s speed=0.00926x    frame=  217 fps=0.4 q=31.0 size=    5185kB time=00:00:05.29 bitrate=8025.4kbits/s speed=0.00922x    frame=  218 fps=0.4 q=31.0 size=    5185kB time=00:00:05.33 bitrate=7963.8kbits/s speed=0.00918x    frame=  219 fps=0.4 q=31.0 size=    5185kB time=00:00:05.37 bitrate=7901.5kbits/s speed=0.0092x    frame=  220 fps=0.4 q=31.0 size=    5185kB time=00:00:05.41 bitrate=7840.3kbits/s speed=0.00922x    frame=  221 fps=0.4 q=31.0 size=    5185kB time=00:00:05.45 bitrate=7781.4kbits/s speed=0.00925x    frame=  222 fps=0.4 q=31.0 size=    5185kB time=00:00:05.50 bitrate=7722.0kbits/s speed=0.00926x    frame=  223 fps=0.4 q=31.0 size=    5185kB time=00:00:05.54 bitrate=7663.5kbits/s speed=0.00925x    frame=  224 fps=0.4 q=31.0 size=    5185kB time=00:00:05.58 bitrate=7607.2kbits/s speed=0.00923x    frame=  225 fps=0.4 q=31.0 size=    5185kB time=00:00:05.62 bitrate=7550.4kbits/s speed=0.00925x    frame=  226 fps=0.4 q=31.0 size=    5185kB time=00:00:05.66 bitrate=7494.5kbits/s speed=0.00926x    frame=  227 fps=0.4 q=31.0 size=    5185kB time=00:00:05.70 bitrate=7440.7kbits/s speed=0.00928x    frame=  228 fps=0.4 q=31.0 size=    5185kB time=00:00:05.75 bitrate=7386.3kbits/s speed=0.0093x    frame=  229 fps=0.4 q=31.0 size=   10313kB time=00:00:05.79 bitrate=14583.8kbits/s speed=0.0093x    frame=  230 fps=0.4 q=31.0 size=   10313kB time=00:00:05.83 bitrate=14481.3kbits/s speed=0.00926x    frame=  231 fps=0.4 q=31.0 size=   10313kB time=00:00:05.87 bitrate=14377.8kbits/s speed=0.00928x    frame=  232 fps=0.4 q=31.0 size=   10313kB time=00:00:05.91 bitrate=14275.7kbits/s speed=0.0093x    frame=  233 fps=0.4 q=31.0 size=   10313kB time=00:00:05.95 bitrate=14177.5kbits/s speed=0.00931x    frame=  234 fps=0.4 q=31.0 size=   10313kB time=00:00:06.00 bitrate=14078.3kbits/s speed=0.00934x    frame=  235 fps=0.4 q=31.0 size=   10313kB time=00:00:06.04 bitrate=13980.5kbits/s speed=0.00935x    frame=  236 fps=0.4 q=31.0 size=   10313kB time=00:00:06.08 bitrate=13886.2kbits/s speed=0.00931x    frame=  237 fps=0.4 q=31.0 size=   10313kB time=00:00:06.12 bitrate=13791.0kbits/s speed=0.00934x    frame=  238 fps=0.4 q=31.0 size=   10313kB time=00:00:06.16 bitrate=13697.1kbits/s speed=0.00937x    frame=  239 fps=0.4 q=31.0 size=   10313kB time=00:00:06.20 bitrate=13606.7kbits/s speed=0.00938x    frame=  240 fps=0.4 q=31.0 size=   10313kB time=00:00:06.25 bitrate=13515.3kbits/s speed=0.00942x    frame=  241 fps=0.4 q=31.0 size=   10313kB time=00:00:06.29 bitrate=13425.1kbits/s speed=0.00945x    frame=  242 fps=0.4 q=31.0 size=   10313kB time=00:00:06.33 bitrate=13338.2kbits/s speed=0.00949x    frame=  243 fps=0.4 q=31.0 size=   10313kB time=00:00:06.37 bitrate=13250.3kbits/s speed=0.00953x    frame=  245 fps=0.4 q=31.0 size=   10313kB time=00:00:06.45 bitrate=13080.0kbits/s speed=0.00941x    frame=  246 fps=0.4 q=31.0 size=   10313kB time=00:00:06.50 bitrate=12995.5kbits/s speed=0.00944x    frame=  247 fps=0.4 q=31.0 size=   10313kB time=00:00:06.54 bitrate=12912.1kbits/s speed=0.00947x    frame=  248 fps=0.4 q=31.0 size=   10313kB time=00:00:06.58 bitrate=12831.7kbits/s speed=0.0095x    frame=  249 fps=0.4 q=31.0 size=   10313kB time=00:00:06.62 bitrate=12750.4kbits/s speed=0.00952x    frame=  250 fps=0.4 q=31.0 size=   10313kB time=00:00:06.66 bitrate=12670.0kbits/s speed=0.00955x    frame=  251 fps=0.4 q=30.0 size=   10313kB time=00:00:06.70 bitrate=12592.6kbits/s speed=0.00946x    frame=  252 fps=0.4 q=30.0 size=   10313kB time=00:00:06.75 bitrate=12514.3kbits/s speed=0.00948x    frame=  253 fps=0.4 q=30.0 size=   10313kB time=00:00:06.79 bitrate=12436.9kbits/s speed=0.00949x    frame=  254 fps=0.4 q=30.0 size=   10313kB time=00:00:06.83 bitrate=12362.3kbits/s speed=0.00948x    frame=  255 fps=0.4 q=30.0 size=   10313kB time=00:00:06.87 bitrate=12286.8kbits/s speed=0.00949x    frame=  256 fps=0.4 q=30.0 size=   10313kB time=00:00:06.91 bitrate=12212.2kbits/s speed=0.00953x    frame=  257 fps=0.4 q=30.0 size=   10313kB time=00:00:06.95 bitrate=12140.2kbits/s speed=0.00948x    frame=  258 fps=0.3 q=30.0 size=   10313kB time=00:00:07.00 bitrate=12067.4kbits/s speed=0.00949x    frame=  259 fps=0.3 q=30.0 size=   10313kB time=00:00:07.04 bitrate=11995.4kbits/s speed=0.00948x    frame=  260 fps=0.3 q=30.0 size=   10313kB time=00:00:07.08 bitrate=11926.0kbits/s speed=0.00949x    frame=  261 fps=0.3 q=30.0 size=   10313kB time=00:00:07.12 bitrate=11855.7kbits/s speed=0.00949x    frame=  262 fps=0.3 q=30.0 size=   10313kB time=00:00:07.16 bitrate=11786.3kbits/s speed=0.00949x    frame=  263 fps=0.3 q=30.0 size=   10313kB time=00:00:07.20 bitrate=11719.2kbits/s speed=0.00948x    frame=  264 fps=0.3 q=30.0 size=   10313kB time=00:00:07.25 bitrate=11651.3kbits/s speed=0.0095x    frame=  265 fps=0.3 q=30.0 size=   10313kB time=00:00:07.29 bitrate=11584.2kbits/s speed=0.00947x    frame=  266 fps=0.3 q=30.0 size=   10313kB time=00:00:07.33 bitrate=11519.5kbits/s speed=0.00948x    frame=  267 fps=0.3 q=30.0 size=   10313kB time=00:00:07.37 bitrate=11453.9kbits/s speed=0.0095x    frame=  268 fps=0.3 q=30.0 size=   10313kB time=00:00:07.41 bitrate=11389.0kbits/s speed=0.00952x    frame=  269 fps=0.3 q=30.0 size=   10313kB time=00:00:07.45 bitrate=11326.4kbits/s speed=0.0095x    frame=  270 fps=0.3 q=30.0 size=   10313kB time=00:00:07.50 bitrate=11263.0kbits/s speed=0.00951x    frame=  271 fps=0.3 q=30.0 size=   10313kB time=00:00:07.54 bitrate=11200.3kbits/s speed=0.00951x    frame=  272 fps=0.3 q=30.0 size=   10313kB time=00:00:07.58 bitrate=11139.8kbits/s speed=0.00945x    frame=  273 fps=0.3 q=30.0 size=   10313kB time=00:00:07.62 bitrate=11078.4kbits/s speed=0.00947x    frame=  274 fps=0.3 q=30.0 size=   10313kB time=00:00:07.66 bitrate=11017.7kbits/s speed=0.00949x    frame=  276 fps=0.3 q=30.0 size=   10313kB time=00:00:07.75 bitrate=10899.7kbits/s speed=0.00954x    frame=  277 fps=0.3 q=30.0 size=   10313kB time=00:00:07.79 bitrate=10841.0kbits/s speed=0.00958x    frame=  278 fps=0.3 q=30.0 size=   10313kB time=00:00:07.83 bitrate=10784.3kbits/s speed=0.00961x    frame=  279 fps=0.3 q=30.0 size=   10313kB time=00:00:07.87 bitrate=10726.7kbits/s speed=0.00951x    frame=  280 fps=0.3 q=30.0 size=   10313kB time=00:00:07.91 bitrate=10669.8kbits/s speed=0.00954x    frame=  281 fps=0.3 q=30.0 size=   10313kB time=00:00:07.95 bitrate=10614.9kbits/s speed=0.00958x    frame=  282 fps=0.3 q=30.0 size=   10313kB time=00:00:08.00 bitrate=10559.2kbits/s speed=0.0096x    frame=  283 fps=0.3 q=30.0 size=   10313kB time=00:00:08.04 bitrate=10504.0kbits/s speed=0.00962x    frame=  284 fps=0.3 q=30.0 size=   10313kB time=00:00:08.08 bitrate=10450.8kbits/s speed=0.00964x    frame=  285 fps=0.3 q=30.0 size=   10313kB time=00:00:08.12 bitrate=10396.7kbits/s speed=0.00954x    frame=  286 fps=0.3 q=30.0 size=   10313kB time=00:00:08.16 bitrate=10343.3kbits/s speed=0.00954x    frame=  287 fps=0.3 q=30.0 size=   10313kB time=00:00:08.20 bitrate=10291.6kbits/s speed=0.00956x    frame=  288 fps=0.3 q=30.0 size=   10313kB time=00:00:08.25 bitrate=10239.2kbits/s speed=0.00957x    frame=  289 fps=0.3 q=30.0 size=   10313kB time=00:00:08.29 bitrate=10187.4kbits/s speed=0.00958x    frame=  290 fps=0.3 q=30.0 size=   10313kB time=00:00:08.33 bitrate=10137.3kbits/s speed=0.0096x    frame=  291 fps=0.3 q=30.0 size=   10313kB time=00:00:08.37 bitrate=10086.4kbits/s speed=0.00956x    frame=  292 fps=0.3 q=30.0 size=   10313kB time=00:00:08.41 bitrate=10036.1kbits/s speed=0.00953x    frame=  293 fps=0.3 q=30.0 size=   10313kB time=00:00:08.45 bitrate=9987.5kbits/s speed=0.00955x    frame=  294 fps=0.3 q=30.0 size=   10313kB time=00:00:08.50 bitrate=9938.1kbits/s speed=0.00956x    frame=  295 fps=0.3 q=30.0 size=   10313kB time=00:00:08.54 bitrate=9889.3kbits/s speed=0.00957x    frame=  296 fps=0.3 q=30.0 size=   10313kB time=00:00:08.58 bitrate=9842.0kbits/s speed=0.00959x    frame=  297 fps=0.3 q=30.0 size=   10313kB time=00:00:08.62 bitrate=9794.1kbits/s speed=0.00952x    frame=  298 fps=0.3 q=30.0 size=   10313kB time=00:00:08.66 bitrate=9746.6kbits/s speed=0.00955x    frame=  299 fps=0.3 q=30.0 size=   10313kB time=00:00:08.70 bitrate=9700.8kbits/s speed=0.00956x    frame=  300 fps=0.3 q=30.0 size=   10313kB time=00:00:08.75 bitrate=9654.2kbits/s speed=0.00955x    frame=  301 fps=0.3 q=30.0 size=   10313kB time=00:00:08.79 bitrate=9608.1kbits/s speed=0.00958x    frame=  302 fps=0.3 q=30.0 size=   10313kB time=00:00:08.83 bitrate=9563.5kbits/s speed=0.00957x    frame=  303 fps=0.3 q=30.0 size=   10313kB time=00:00:08.87 bitrate=9518.2kbits/s speed=0.00961x    frame=  304 fps=0.3 q=30.0 size=   10313kB time=00:00:08.91 bitrate=9473.4kbits/s speed=0.00958x    frame=  305 fps=0.3 q=30.0 size=   10313kB time=00:00:08.95 bitrate=9430.1kbits/s speed=0.00957x    frame=  306 fps=0.3 q=30.0 size=   10313kB time=00:00:09.00 bitrate=9386.1kbits/s speed=0.0096x    frame=  307 fps=0.3 q=30.0 size=   15539kB time=00:00:09.04 bitrate=14076.3kbits/s speed=0.00959x    frame=  308 fps=0.3 q=30.0 size=   15539kB time=00:00:09.08 bitrate=14012.8kbits/s speed=0.00962x    frame=  309 fps=0.3 q=30.0 size=   15539kB time=00:00:09.12 bitrate=13948.3kbits/s speed=0.00964x    frame=  310 fps=0.3 q=30.0 size=   15539kB time=00:00:09.16 bitrate=13884.4kbits/s speed=0.0096x    frame=  311 fps=0.3 q=30.0 size=   15539kB time=00:00:09.20 bitrate=13822.6kbits/s speed=0.00963x    frame=  312 fps=0.3 q=30.0 size=   15539kB time=00:00:09.25 bitrate=13759.8kbits/s speed=0.00965x    frame=  314 fps=0.3 q=30.0 size=   15539kB time=00:00:09.33 bitrate=13637.4kbits/s speed=0.00962x    frame=  315 fps=0.3 q=30.0 size=   15539kB time=00:00:09.37 bitrate=13576.4kbits/s speed=0.00965x    frame=  316 fps=0.3 q=30.0 size=   15539kB time=00:00:09.41 bitrate=13515.8kbits/s speed=0.00968x    frame=  319 fps=0.3 q=30.0 size=   15539kB time=00:00:09.54 bitrate=13338.8kbits/s speed=0.00973x    frame=  320 fps=0.3 q=29.0 size=   15539kB time=00:00:09.58 bitrate=13281.7kbits/s speed=0.00976x    frame=  321 fps=0.3 q=30.0 size=   15539kB time=00:00:09.62 bitrate=13223.8kbits/s speed=0.00968x    frame=  322 fps=0.3 q=29.0 size=   15539kB time=00:00:09.66 bitrate=13166.3kbits/s speed=0.00971x    frame=  323 fps=0.3 q=29.0 size=   15539kB time=00:00:09.70 bitrate=13110.7kbits/s speed=0.00974x    frame=  324 fps=0.3 q=29.0 size=   15539kB time=00:00:09.75 bitrate=13054.2kbits/s speed=0.00975x    frame=  325 fps=0.3 q=29.0 size=   15539kB time=00:00:09.79 bitrate=12998.3kbits/s speed=0.00978x    frame=  326 fps=0.3 q=29.0 size=   15539kB time=00:00:09.83 bitrate=12944.1kbits/s speed=0.00979x    frame=  327 fps=0.3 q=29.0 size=   15539kB time=00:00:09.87 bitrate=12889.0kbits/s speed=0.00982x    frame=  328 fps=0.3 q=29.0 size=   15539kB time=00:00:09.91 bitrate=12834.4kbits/s speed=0.00973x    frame=  329 fps=0.3 q=29.0 size=   15539kB time=00:00:09.95 bitrate=12781.6kbits/s speed=0.00975x    frame=  330 fps=0.3 q=29.0 size=   15539kB time=00:00:10.00 bitrate=12727.9kbits/s speed=0.00978x    frame=  331 fps=0.3 q=29.0 size=   15539kB time=00:00:10.04 bitrate=12674.7kbits/s speed=0.00981x    frame=  332 fps=0.3 q=29.0 size=   15539kB time=00:00:10.08 bitrate=12623.2kbits/s speed=0.00984x    frame=  333 fps=0.3 q=27.0 size=   15539kB time=00:00:10.12 bitrate=12570.8kbits/s speed=0.00985x    frame=  334 fps=0.3 q=29.0 size=   15539kB time=00:00:10.16 bitrate=12518.9kbits/s speed=0.00978x    frame=  335 fps=0.3 q=29.0 size=   15539kB time=00:00:10.20 bitrate=12468.6kbits/s speed=0.0098x    frame=  336 fps=0.3 q=29.0 size=   15539kB time=00:00:10.25 bitrate=12417.5kbits/s speed=0.00981x    frame=  337 fps=0.3 q=29.0 size=   15539kB time=00:00:10.29 bitrate=12366.8kbits/s speed=0.00984x    frame=  338 fps=0.3 q=29.0 size=   17401kB time=00:00:10.33 bitrate=13793.8kbits/s speed=0.00986x    frame=  342 fps=0.3 q=29.0 size=   17401kB time=00:00:10.50 bitrate=13574.4kbits/s speed=0.01x    frame=  344 fps=0.3 q=29.0 size=   17401kB time=00:00:10.58 bitrate=13468.0kbits/s speed=0.01x    frame=  346 fps=0.3 q=29.0 size=   17401kB time=00:00:10.66 bitrate=13361.9kbits/s speed=0.0101x    frame=  347 fps=0.3 q=29.0 size=   17401kB time=00:00:10.70 bitrate=13310.8kbits/s speed=0.0101x    frame=  348 fps=0.3 q=26.0 size=   17401kB time=00:00:10.75 bitrate=13258.8kbits/s speed=0.0102x    frame=  350 fps=0.3 q=29.0 size=   17401kB time=00:00:10.83 bitrate=13157.2kbits/s speed=0.0102x    frame=  351 fps=0.3 q=29.0 size=   17401kB time=00:00:10.87 bitrate=13106.4kbits/s speed=0.0102x    frame=  353 fps=0.3 q=29.0 size=   17401kB time=00:00:10.95 bitrate=13007.1kbits/s speed=0.0103x    frame=  355 fps=0.3 q=29.0 size=   17401kB time=00:00:11.04 bitrate=12908.2kbits/s speed=0.0103x    frame=  356 fps=0.3 q=29.0 size=   17401kB time=00:00:11.08 bitrate=12860.4kbits/s speed=0.0103x    frame=  357 fps=0.3 q=29.0 size=   17401kB time=00:00:11.12 bitrate=12811.9kbits/s speed=0.0104x    frame=  358 fps=0.3 q=29.0 size=   17401kB time=00:00:11.16 bitrate=12763.7kbits/s speed=0.0103x    frame=  359 fps=0.3 q=29.0 size=   17401kB time=00:00:11.20 bitrate=12717.0kbits/s speed=0.0104x    frame=  360 fps=0.3 q=29.0 size=   17401kB time=00:00:11.25 bitrate=12669.6kbits/s speed=0.0104x    frame=  361 fps=0.3 q=29.0 size=   17401kB time=00:00:11.29 bitrate=12622.4kbits/s speed=0.0104x    frame=  362 fps=0.3 q=29.0 size=   17401kB time=00:00:11.33 bitrate=12576.8kbits/s speed=0.0104x    frame=  363 fps=0.3 q=29.0 size=   17401kB time=00:00:11.37 bitrate=12530.3kbits/s speed=0.0104x    frame=  365 fps=0.3 q=29.0 size=   17401kB time=00:00:11.45 bitrate=12439.6kbits/s speed=0.0104x    frame=  366 fps=0.3 q=29.0 size=   17401kB time=00:00:11.50 bitrate=12394.1kbits/s speed=0.0104x    frame=  367 fps=0.3 q=29.0 size=   17401kB time=00:00:11.54 bitrate=12349.1kbits/s speed=0.0104x    frame=  369 fps=0.3 q=29.0 size=   17401kB time=00:00:11.62 bitrate=12260.9kbits/s speed=0.0105x    frame=  370 fps=0.3 q=28.0 size=   17401kB time=00:00:11.66 bitrate=12216.8kbits/s speed=0.0105x    frame=  371 fps=0.3 q=29.0 size=   17401kB time=00:00:11.70 bitrate=12174.0kbits/s speed=0.0105x    frame=  372 fps=0.3 q=29.0 size=   17401kB time=00:00:11.75 bitrate=12130.5kbits/s speed=0.0105x    frame=  373 fps=0.3 q=29.0 size=   17401kB time=00:00:11.79 bitrate=12087.3kbits/s speed=0.0105x    frame=  374 fps=0.3 q=28.0 size=   17401kB time=00:00:11.83 bitrate=12045.4kbits/s speed=0.0105x    frame=  376 fps=0.3 q=28.0 size=   17401kB time=00:00:11.91 bitrate=11960.5kbits/s speed=0.0105x    frame=  377 fps=0.3 q=28.0 size=   17401kB time=00:00:11.95 bitrate=11919.5kbits/s speed=0.0106x    frame=  378 fps=0.3 q=28.0 size=   17401kB time=00:00:12.00 bitrate=11877.8kbits/s speed=0.0106x    frame=  380 fps=0.3 q=28.0 size=   17401kB time=00:00:12.08 bitrate=11796.2kbits/s speed=0.0106x    frame=  381 fps=0.3 q=28.0 size=   17401kB time=00:00:12.12 bitrate=11755.3kbits/s speed=0.0106x    frame=  382 fps=0.3 q=28.0 size=   17401kB time=00:00:12.16 bitrate=11714.8kbits/s speed=0.0106x    frame=  385 fps=0.3 q=28.0 size=   17401kB time=00:00:12.29 bitrate=11595.6kbits/s speed=0.0107x    frame=  386 fps=0.3 q=28.0 size=   17401kB time=00:00:12.33 bitrate=11557.1kbits/s speed=0.0107x    frame=  387 fps=0.3 q=28.0 size=   17401kB time=00:00:12.37 bitrate=11517.9kbits/s speed=0.0107x    frame=  388 fps=0.3 q=28.0 size=   17401kB time=00:00:12.41 bitrate=11478.9kbits/s speed=0.0107x    frame=  389 fps=0.3 q=28.0 size=   17401kB time=00:00:12.45 bitrate=11441.1kbits/s speed=0.0107x    frame=  390 fps=0.3 q=28.0 size=   17401kB time=00:00:12.50 bitrate=11402.7kbits/s speed=0.0107x    frame=  394 fps=0.3 q=28.0 size=   17401kB time=00:00:12.66 bitrate=11252.4kbits/s speed=0.0107x    frame=  395 fps=0.3 q=28.0 size=   17401kB time=00:00:12.70 bitrate=11216.1kbits/s speed=0.0108x    frame=  396 fps=0.3 q=28.0 size=   17401kB time=00:00:12.75 bitrate=11179.1kbits/s speed=0.0108x    frame=  400 fps=0.3 q=27.0 size=   17401kB time=00:00:12.91 bitrate=11034.6kbits/s speed=0.0108x    frame=  401 fps=0.3 q=28.0 size=   17401kB time=00:00:12.95 bitrate=10999.7kbits/s speed=0.0108x    frame=  402 fps=0.3 q=28.0 size=   17401kB time=00:00:13.00 bitrate=10964.2kbits/s speed=0.0109x    frame=  406 fps=0.3 q=27.0 size=   17401kB time=00:00:13.16 bitrate=10825.1kbits/s speed=0.0109x    frame=  407 fps=0.3 q=27.0 size=   17401kB time=00:00:13.20 bitrate=10791.5kbits/s speed=0.0109x    frame=  408 fps=0.3 q=27.0 size=   17401kB time=00:00:13.25 bitrate=10757.3kbits/s speed=0.0109x    frame=  411 fps=0.3 q=27.0 size=   17401kB time=00:00:13.37 bitrate=10656.8kbits/s speed=0.011x    frame=  412 fps=0.3 q=27.0 size=   17401kB time=00:00:13.41 bitrate=10623.4kbits/s speed=0.011x    frame=  413 fps=0.3 q=27.0 size=   17401kB time=00:00:13.45 bitrate=10591.1kbits/s speed=0.011x    frame=  416 fps=0.3 q=27.0 size=   17401kB time=00:00:13.58 bitrate=10493.6kbits/s speed=0.011x    frame=  418 fps=0.3 q=27.0 size=   17401kB time=00:00:13.66 bitrate=10429.1kbits/s speed=0.0111x    frame=  421 fps=0.3 q=27.0 size=   17401kB time=00:00:13.79 bitrate=10334.6kbits/s speed=0.0111x    frame=  422 fps=0.3 q=27.0 size=   17401kB time=00:00:13.83 bitrate=10304.0kbits/s speed=0.0111x    frame=  423 fps=0.3 q=27.0 size=   17401kB time=00:00:13.87 bitrate=10272.8kbits/s speed=0.0112x    frame=  426 fps=0.3 q=26.0 size=   17401kB time=00:00:14.00 bitrate=10181.1kbits/s speed=0.0112x    frame=  427 fps=0.3 q=27.0 size=   17401kB time=00:00:14.04 bitrate=10150.6kbits/s speed=0.0112x    frame=  428 fps=0.3 q=27.0 size=   17401kB time=00:00:14.08 bitrate=10121.1kbits/s speed=0.0112x    frame=  432 fps=0.3 q=26.0 size=   17401kB time=00:00:14.25 bitrate=10002.5kbits/s speed=0.0113x    frame=  433 fps=0.3 q=26.0 size=   17401kB time=00:00:14.29 bitrate=9973.1kbits/s speed=0.0113x    frame=  434 fps=0.3 q=26.0 size=   17401kB time=00:00:14.33 bitrate=9944.5kbits/s speed=0.0113x    frame=  438 fps=0.3 q=26.0 size=   22544kB time=00:00:14.50 bitrate=12735.7kbits/s speed=0.0113x    frame=  440 fps=0.3 q=26.0 size=   22544kB time=00:00:14.58 bitrate=12663.3kbits/s speed=0.0114x    frame=  444 fps=0.3 q=26.0 size=   22544kB time=00:00:14.75 bitrate=12519.9kbits/s speed=0.0114x    frame=  445 fps=0.3 q=26.0 size=   22544kB time=00:00:14.79 bitrate=12484.3kbits/s speed=0.0114x    frame=  446 fps=0.3 q=26.0 size=   22544kB time=00:00:14.83 bitrate=12449.8kbits/s speed=0.0115x    frame=  448 fps=0.3 q=26.0 size=   22544kB time=00:00:14.91 bitrate=12379.7kbits/s speed=0.0114x    frame=  449 fps=0.3 q=26.0 size=   22544kB time=00:00:14.95 bitrate=12345.8kbits/s speed=0.0115x    frame=  451 fps=0.3 q=26.0 size=   22544kB time=00:00:15.04 bitrate=12276.9kbits/s speed=0.0115x    frame=  452 fps=0.3 q=26.0 size=   22544kB time=00:00:15.08 bitrate=12243.5kbits/s speed=0.0115x    frame=  453 fps=0.3 q=26.0 size=   22544kB time=00:00:15.12 bitrate=12209.5kbits/s speed=0.0115x    frame=  454 fps=0.3 q=26.0 size=   22544kB time=00:00:15.16 bitrate=12175.7kbits/s speed=0.0115x    frame=  455 fps=0.3 q=26.0 size=   22544kB time=00:00:15.20 bitrate=12142.9kbits/s speed=0.0115x    frame=  456 fps=0.3 q=26.0 size=   22544kB time=00:00:15.25 bitrate=12109.4kbits/s speed=0.0115x    frame=  457 fps=0.3 q=26.0 size=   22544kB time=00:00:15.29 bitrate=12076.2kbits/s speed=0.0115x    frame=  458 fps=0.3 q=26.0 size=   22544kB time=00:00:15.33 bitrate=12043.9kbits/s speed=0.0115x    frame=  459 fps=0.3 q=26.0 size=   22544kB time=00:00:15.37 bitrate=12011.0kbits/s speed=0.0115x    frame=  460 fps=0.3 q=26.0 size=   22544kB time=00:00:15.41 bitrate=11978.3kbits/s speed=0.0115x    frame=  461 fps=0.3 q=26.0 size=   22544kB time=00:00:15.45 bitrate=11946.5kbits/s speed=0.0115x    frame=  463 fps=0.3 q=26.0 size=   22544kB time=00:00:15.54 bitrate=11881.9kbits/s speed=0.0115x    frame=  464 fps=0.3 q=26.0 size=   22544kB time=00:00:15.58 bitrate=11850.7kbits/s speed=0.0115x    frame=  465 fps=0.3 q=26.0 size=   22544kB time=00:00:15.62 bitrate=11818.8kbits/s speed=0.0115x    frame=  467 fps=0.3 q=26.0 size=   22544kB time=00:00:15.70 bitrate=11756.4kbits/s speed=0.0115x    frame=  468 fps=0.3 q=26.0 size=   22544kB time=00:00:15.75 bitrate=11725.0kbits/s speed=0.0116x    frame=  469 fps=0.3 q=26.0 size=   22544kB time=00:00:15.79 bitrate=11693.8kbits/s speed=0.0116x    frame=  470 fps=0.3 q=25.0 size=   22544kB time=00:00:15.83 bitrate=11663.6kbits/s speed=0.0115x    frame=  471 fps=0.3 q=25.0 size=   22544kB time=00:00:15.87 bitrate=11632.7kbits/s speed=0.0116x    frame=  472 fps=0.3 q=25.0 size=   22544kB time=00:00:15.91 bitrate=11602.0kbits/s speed=0.0116x    frame=  476 fps=0.3 q=25.0 size=   22544kB time=00:00:16.08 bitrate=11482.3kbits/s speed=0.0116x    frame=  477 fps=0.3 q=25.0 size=   22544kB time=00:00:16.12 bitrate=11452.4kbits/s speed=0.0116x    frame=  478 fps=0.3 q=25.0 size=   22544kB time=00:00:16.16 bitrate=11422.6kbits/s speed=0.0116x    frame=  479 fps=0.3 q=25.0 size=   22544kB time=00:00:16.20 bitrate=11393.7kbits/s speed=0.0116x    frame=  480 fps=0.3 q=25.0 size=   22544kB time=00:00:16.25 bitrate=11364.3kbits/s speed=0.0116x    frame=  481 fps=0.3 q=25.0 size=   22544kB time=00:00:16.29 bitrate=11335.0kbits/s speed=0.0116x    frame=  482 fps=0.3 q=25.0 size=   22544kB time=00:00:16.33 bitrate=11306.5kbits/s speed=0.0116x    frame=  483 fps=0.3 q=25.0 size=   22544kB time=00:00:16.37 bitrate=11277.5kbits/s speed=0.0116x    frame=  484 fps=0.3 q=25.0 size=   22544kB time=00:00:16.41 bitrate=11248.7kbits/s speed=0.0116x    frame=  485 fps=0.3 q=25.0 size=   22544kB time=00:00:16.45 bitrate=11220.7kbits/s speed=0.0116x    frame=  487 fps=0.3 q=26.0 size=   22544kB time=00:00:16.54 bitrate=11163.7kbits/s speed=0.0116x    frame=  488 fps=0.3 q=26.0 size=   22544kB time=00:00:16.58 bitrate=11136.1kbits/s speed=0.0116x    frame=  489 fps=0.3 q=26.0 size=   22544kB time=00:00:16.62 bitrate=11108.0kbits/s speed=0.0116x    frame=  490 fps=0.3 q=26.0 size=   22544kB time=00:00:16.66 bitrate=11080.0kbits/s speed=0.0116x    frame=  491 fps=0.3 q=26.0 size=   22544kB time=00:00:16.70 bitrate=11052.8kbits/s speed=0.0116x    frame=  492 fps=0.3 q=26.0 size=   22544kB time=00:00:16.75 bitrate=11025.1kbits/s speed=0.0116x    frame=  493 fps=0.3 q=26.0 size=   22544kB time=00:00:16.79 bitrate=10997.5kbits/s speed=0.0116x    frame=  494 fps=0.3 q=26.0 size=   22544kB time=00:00:16.83 bitrate=10970.7kbits/s speed=0.0116x    frame=  495 fps=0.3 q=26.0 size=   22544kB time=00:00:16.87 bitrate=10943.4kbits/s speed=0.0116x    frame=  496 fps=0.3 q=26.0 size=   22544kB time=00:00:16.91 bitrate=10916.2kbits/s speed=0.0116x    frame=  497 fps=0.3 q=26.0 size=   22544kB time=00:00:16.95 bitrate=10889.8kbits/s speed=0.0116x    frame=  498 fps=0.3 q=26.0 size=   22544kB time=00:00:17.00 bitrate=10862.9kbits/s speed=0.0116x    frame=  499 fps=0.3 q=26.0 size=   22544kB time=00:00:17.04 bitrate=10836.2kbits/s speed=0.0116x    frame=  500 fps=0.3 q=26.0 size=   22544kB time=00:00:17.08 bitrate=10810.2kbits/s speed=0.0116x    frame=  500 fps=0.3 q=-1.0 Lsize=   33838kB time=00:00:20.70 bitrate=13385.7kbits/s speed=0.0122x    
video:33833kB audio:0kB subtitle:0kB other streams:0kB global headers:0kB muxing overhead: 0.014285%
bench: utime=6488.600s
bench: maxrss=4184292kB
[libx264 @ 0x339b1c0] frame I:3     Avg QP:19.63  size:346852
[libx264 @ 0x339b1c0] frame P:267   Avg QP:27.61  size: 87669
[libx264 @ 0x339b1c0] frame B:230   Avg QP:27.13  size: 44333
[libx264 @ 0x339b1c0] consecutive B-frames: 34.8% 13.6% 12.0% 16.0% 14.0%  9.6%  0.0%  0.0%  0.0%  0.0%  0.0%  0.0%  0.0%  0.0%  0.0%  0.0%  0.0%
[libx264 @ 0x339b1c0] mb I  I16..4:  9.8% 75.5% 14.7%
[libx264 @ 0x339b1c0] mb P  I16..4: 15.9% 16.4%  1.2%  P16..4: 31.8% 19.9%  3.1%  0.2%  0.0%    skip:11.4%
[libx264 @ 0x339b1c0] mb B  I16..4:  1.2%  2.8%  0.2%  B16..8: 31.5%  9.4%  1.1%  direct: 1.9%  skip:51.8%  L0:43.2% L1:52.0% BI: 4.9%
[libx264 @ 0x339b1c0] final ratefactor: 22.95
[libx264 @ 0x339b1c0] 8x8 transform intra:51.3% inter:84.2%
[libx264 @ 0x339b1c0] direct mvs  spatial:98.7% temporal:1.3%
[libx264 @ 0x339b1c0] coded y,uvDC,uvAC intra: 23.7% 26.6% 3.4% inter: 8.6% 8.4% 0.2%
[libx264 @ 0x339b1c0] i16 v,h,dc,p:  8% 15%  3% 74%
[libx264 @ 0x339b1c0] i8 v,h,dc,ddl,ddr,vr,hd,vl,hu:  9%  8% 13%  8% 11% 11% 13% 11% 17%
[libx264 @ 0x339b1c0] i4 v,h,dc,ddl,ddr,vr,hd,vl,hu: 15% 12% 27%  5% 10%  7%  9%  5%  9%
[libx264 @ 0x339b1c0] i8c dc,h,v,p: 18% 41% 17% 24%
[libx264 @ 0x339b1c0] Weighted P-Frames: Y:3.0% UV:2.6%
[libx264 @ 0x339b1c0] ref P L0: 64.2% 17.3%  8.7%  2.9%  1.7%  1.2%  0.9%  0.6%  0.5%  0.4%  0.3%  0.3%  0.3%  0.2%  0.2%  0.2%
[libx264 @ 0x339b1c0] ref B L0: 89.0%  5.5%  2.1%  0.9%  0.7%  0.4%  0.4%  0.3%  0.2%  0.1%  0.1%  0.1%  0.1%  0.1%  0.0%
[libx264 @ 0x339b1c0] ref B L1: 98.4%  1.6%
[libx264 @ 0x339b1c0] kb/s:13303.60
